<svg xmlns="http://www.w3.org/2000/svg" width="64" height="64" viewBox="0 0 16.933 16.933" id="event">
  <path fill="#e4eff8" d="m 14.552083,1.3229166 c 0.586316,0 1.058333,0.4720167 1.058333,1.0583333 V 12.964583 l -3.174999,3.175 H 2.3812499 c -0.5863166,0 -1.0583333,-0.472017 -1.0583333,-1.058333 V 2.3812499 c 0,-0.5863166 0.4720167,-1.0583333 1.0583333,-1.0583333"></path>
  <path fill="#c4dcf0" d="M 1.9466512,1.4174845 C 1.5787904,1.5829327 1.3229166,1.9503746 1.3229166,2.38125 v 12.7 c 0,0.586316 0.4720168,1.058333 1.0583334,1.058333 h 10.054167 l 0.529166,-0.529167 H 2.9104166 c -0.5863166,0 -1.0583333,-0.472017 -1.0583333,-1.058333 V 1.8520833 c 0,-0.1554412 0.034881,-0.3018905 0.094568,-0.4345988 z"></path>
  <path fill="#ff5151" d="m 14.552083,1.3229166 c 0.586316,0 1.058333,0.4720167 1.058333,1.0583333 v 1.0583334 l -14.2874994,1e-7 V 2.3812499 c 0,-0.5863166 0.4720167,-1.0583333 1.0583333,-1.0583333"></path>
  <path fill="#549ad4" d="m 13.49375,12.964583 c -0.586316,0 -1.058333,0.472017 -1.058333,1.058333 v 2.116667 l 3.174999,-3.175 z"></path>
  <path fill="#3588cb" d="m 13.49375,12.964583 c -0.586316,0 -1.058333,0.472017 -1.058333,1.058333 v 2.116667 l 0.529166,-0.529167 v -1.5875 c 0,-0.586316 0.472017,-1.058333 1.058333,-1.058333 z"></path>
  <path fill="#ff2929" d="M 1.9466512,1.4174845 C 1.5787904,1.5829327 1.3229166,1.9503746 1.3229166,2.38125 V 3.4395833 H 15.610416 V 2.9104166 H 1.8520833 V 1.8520833 c 0,-0.1554412 0.034881,-0.3018905 0.094568,-0.4345988 z"></path>
  <path fill="#ffca28" d="m 4.4979168,0.79374999 c 0.2931583,0 0.5291667,0.23600841 0.5291667,0.52916671 V 1.8520833 C 5.0270835,2.1452417 4.7910751,2.38125 4.4979168,2.38125 4.2047584,2.38125 3.96875,2.1452417 3.96875,1.8520833 V 1.3229167 c 0,-0.2931583 0.2360084,-0.52916671 0.5291668,-0.52916671 z"></path>
  <path fill="#ecb200" d="m 4.4979166,0.79374999 c -0.2931583,0 -0.5291666,0.23600831 -0.5291666,0.52916661 v 0.5291667 c 0,0.2931584 0.2360083,0.5291667 0.5291666,0.5291667 0.2931583,0 0.5291667,-0.2360083 0.5291667,-0.5291667 -0.2931584,0 -0.5291667,-0.2360082 -0.5291667,-0.5291667 z"></path>
  <path fill="#ffca28" d="m 12.435417,0.79374999 c 0.293158,0 0.529167,0.23600841 0.529167,0.52916671 v 0.5291666 c 0,0.2931584 -0.236009,0.5291667 -0.529167,0.5291667 -0.293159,0 -0.529167,-0.2360083 -0.529167,-0.5291667 V 1.3229167 c 0,-0.2931583 0.236008,-0.52916671 0.529167,-0.52916671 z"></path>
  <path fill="#ecb200" d="m 12.435416,0.79374999 c -0.293158,0 -0.529166,0.23600831 -0.529166,0.52916661 v 0.5291667 c 0,0.2931584 0.236008,0.5291667 0.529166,0.5291667 0.293159,0 0.529167,-0.2360083 0.529167,-0.5291667 -0.293158,0 -0.529167,-0.2360082 -0.529167,-0.5291667 z"></path>
  <path fill="#549ad4" d="M3.3512167 4.7624999c-.2442988 0-.4408001.1965013-.4408001.4408001v1.7642332c0 .2442988.1965013.4408.4408001.4408h1.7642332c.2442988 0 .4408-.1965012.4408-.4408V5.2033c0-.2442988-.1965012-.4408001-.4408-.4408001zM7.58455 4.7624999c-.2442988 0-.4408001.1965013-.4408001.4408001v1.7642332c0 .2442988.1965013.4408.4408001.4408h1.7642331c.2442988 0 .4408001-.1965012.4408001-.4408V5.2033c0-.2442988-.1965013-.4408001-.4408001-.4408001zM11.817883 4.7624999c-.244299 0-.4408.1965013-.4408.4408001v1.7642332c0 .2442988.196501.4408.4408.4408h1.764233c.244299 0 .4408-.1965012.4408-.4408V5.2033c0-.2442988-.196501-.4408001-.4408-.4408001zM7.58455 8.7312499c-.2442988 0-.4408001.1965013-.4408001.4408001v1.764233c0 .244299.1965013.4408.4408001.4408h1.7642331c.2442988 0 .4408001-.196501.4408001-.4408V9.17205c0-.2442988-.1965013-.4408001-.4408001-.4408001zM11.817883 8.7312499c-.244299 0-.4408.1965013-.4408.4408001v1.764233c0 .244299.196501.4408.4408.4408h1.764233c.244299 0 .4408-.196501.4408-.4408V9.17205c0-.2442988-.196501-.4408001-.4408-.4408001zM3.3512167 12.435417c-.2442988 0-.4408001.196501-.4408001.4408v1.764233c0 .244299.1965013.4408.4408001.4408h1.7642332c.2442988 0 .4408-.196501.4408-.4408v-1.764233c0-.244299-.1965012-.4408-.4408-.4408zM7.58455 12.435417c-.2442988 0-.4408001.196501-.4408001.4408v1.764233c0 .244299.1965013.4408.4408001.4408h1.7642331c.2442988 0 .4408001-.196501.4408001-.4408v-1.764233c0-.244299-.1965013-.4408-.4408001-.4408z"></path>
  <path fill="#3588cb" d="M3.3512167 4.7624999c-.2442988 0-.4408001.1965013-.4408001.4408001v1.7642332c0 .2442988.1965013.4408.4408001.4408h1.7642332c.2442988 0 .4408-.1965012.4408-.4408V6.8791666H3.8803834c-.2442988 0-.4408001-.1965013-.4408001-.4408001V4.7624999zM7.58455 4.7624999c-.2442988 0-.4408001.1965013-.4408001.4408001v1.7642332c0 .2442988.1965013.4408.4408001.4408h1.7642331c.2442988 0 .4408001-.1965012.4408001-.4408V6.8791666H8.1137166c-.2442988 0-.4408-.1965013-.4408-.4408001V4.7624999zM11.817883 4.7624999c-.244299 0-.4408.1965013-.4408.4408001v1.7642332c0 .2442988.196501.4408.4408.4408h1.764233c.244299 0 .4408-.1965012.4408-.4408V6.8791666H12.34705c-.244299 0-.4408-.1965013-.4408-.4408001V4.7624999zM7.58455 8.7312499c-.2442988 0-.4408001.1965013-.4408001.4408001v1.764233c0 .244299.1965013.4408.4408001.4408h1.7642331c.2442988 0 .4408001-.196501.4408001-.4408v-.08837H8.1137166c-.2442988 0-.4408-.196501-.4408-.440801V8.7312499zM11.817883 8.7312499c-.244299 0-.4408.1965013-.4408.4408001v1.764233c0 .244299.196501.4408.4408.4408h1.764233c.244299 0 .4408-.196501.4408-.4408v-.08837H12.34705c-.244299 0-.4408-.196501-.4408-.440801V8.7312499zM3.3512167 12.435417c-.2442988 0-.4408001.196501-.4408001.4408v1.764233c0 .244299.1965013.4408.4408001.4408h1.7642332c.2442988 0 .4408-.196501.4408-.4408V14.55208H3.8803834c-.2442988 0-.4408001-.196501-.4408001-.4408v-1.675866zM7.58455 12.435417c-.2442988 0-.4408001.196501-.4408001.4408v1.764233c0 .244299.1965013.4408.4408001.4408h1.7642331c.2442988 0 .4408001-.196501.4408001-.4408V14.55208H8.1137166c-.2442988 0-.4408-.196501-.4408-.4408v-1.675866z"></path>
  <path fill="#ff5151" d="m 3.3513887,8.7312498 h 1.763889 c 0.2442986,0 0.4409722,0.1966736 0.4409722,0.4409722 v 1.763889 c 0,0.244299 -0.1966736,0.440972 -0.4409722,0.440972 h -1.763889 c -0.2442985,0 -0.4409721,-0.196673 -0.4409721,-0.440972 V 9.172222 c 0,-0.2442986 0.1966736,-0.4409722 0.4409721,-0.4409722 z"></path>
  <path fill="#ff2929" d="m 3.3512167,8.7312499 c -0.2442988,0 -0.4408001,0.1965013 -0.4408001,0.4408001 v 1.764233 c 0,0.244299 0.1965013,0.4408 0.4408001,0.4408 h 1.7642332 c 0.2442988,0 0.4408,-0.196501 0.4408,-0.4408 v -0.08837 H 3.8803834 c -0.2442988,0 -0.4408001,-0.196502 -0.4408001,-0.440801 V 8.7312499 Z"></path>
  <path d="M 3.7482019,1.0588499 H 2.380282 c -0.7345401,0 -1.32193,0.593564 -1.32193,1.3218829 V 15.082284 c 0,0.735627 0.59359,1.321883 1.32193,1.321883 h 10.055039 c 0.0704,-1.3e-5 0.13793,-0.0281 0.18759,-0.07803 l 3.17407,-3.173966 c 0.0499,-0.04966 0.078,-0.117165 0.078,-0.187586 V 2.3807328 c 0,-0.7283189 -0.5941,-1.3218829 -1.32244,-1.3218829 h -1.36792 c -0.11291,-0.31487494 -0.40682,-0.52968391 -0.74933,-0.52968391 -0.34252,0 -0.6407,0.21691997 -0.74856,0.52968391 H 5.246842 C 5.1331616,0.74182796 4.8400218,0.52916599 4.4975266,0.52916599 c -0.3424946,0 -0.6354246,0.21206197 -0.7493247,0.52968391 z m 0.7493401,0 c 0.1418598,0 0.2635597,0.112394 0.2635597,0.26355 v 0.529166 c 0,0.151156 -0.1216999,0.265617 -0.2635597,0.265617 -0.1418601,0 -0.26563,-0.114461 -0.26563,-0.265617 v -0.529166 c 0,-0.151156 0.1237699,-0.26355 0.26563,-0.26355 z m 7.937779,0 c 0.14289,0 0.26355,0.112394 0.26355,0.26355 v 0.529166 c 0,0.151156 -0.11859,0.265617 -0.26355,0.265617 -0.14496,0 -0.26563,-0.114461 -0.26563,-0.265617 v -0.529166 c 0,-0.151156 0.12273,-0.26355 0.26563,-0.26355 z M 2.380282,1.5880169 h 1.3245099 v 0.263549 c 0,0.435161 0.3472399,0.7947839 0.7927501,0.7947839 0.4455099,0 0.79326,-0.3596229 0.79326,-0.7947839 v -0.263549 h 6.351769 v 0.263549 c 0,0.435161 0.35033,0.7947839 0.79275,0.7947839 0.44241,0 0.79326,-0.3596219 0.79326,-0.7947839 v -0.263549 h 1.32399 c 0.44433,0 0.79326,0.348402 0.79326,0.7927159 V 3.1760329 H 1.5875419 V 2.3807328 c 0,-0.4381129 0.3484099,-0.7927159 0.7927401,-0.7927159 z m 4.2345196,1.0583329 h 3.7032594 c 0.3607,0.008 0.3607,-0.5371699 0,-0.5291669 H 6.6148016 c -0.3537196,0.01033 -0.35345,0.5187239 0,0.5291669 z M 1.5875419,3.7051996 H 15.345831 v 8.9937674 h -1.85163 c -0.73351,0 -1.32451,0.596147 -1.32451,1.324467 v 1.851567 H 2.380282 c -0.4443301,0 -0.7927401,-0.357705 -0.7927401,-0.792717 z m 4.0448498,0.605133 -0.2418498,0.2439133 c -0.0818,-0.03959 -0.1940903,-0.05633 -0.27545,-0.05633 H 3.351322 c -0.39355,0 -0.70541,0.319083 -0.70541,0.7053839 v 1.7637159 c 0,0.09723 0.0194,0.1910983 0.0558,0.275953 l -0.2434,0.243396 c -0.24501,0.262405 0.12627,0.6149099 0.37311,0.3731029 l 0.24444,-0.2423617 c 0.0851,0.03697 0.1776399,0.05684 0.27545,0.05684 h 1.76377 c 0.3863199,0 0.7048895,-0.3206329 0.7048895,-0.7069339 V 5.2032995 c 0,-0.09658 -0.019399,-0.1907098 -0.0553,-0.2749185 L 6.0075613,4.685502 c 0.16959,-0.1731092 0.0402,-0.4577691 -0.19275,-0.4521692 -0.06929,0.00159 -0.1341098,0.02731 -0.1824196,0.077 z m 4.2345204,0 -0.2434104,0.2433963 c -0.0849,-0.03638 -0.17872,-0.05581 -0.2759602,-0.05581 h -1.76378 c -0.3936195,3e-7 -0.7054098,0.3190833 -0.7054098,0.7053839 v 1.763716 c 0,0.09723 0.021,0.1900642 0.0574,0.274919 l -0.2444401,0.24443 c -0.2405596,0.261983 0.1231001,0.61469 0.3746699,0.373103 L 7.3088616,7.6165915 c 0.0847,0.03657 0.1776999,0.05736 0.2749304,0.05736 h 1.7637799 c 0.3925202,0 0.7069591,-0.3206321 0.7069591,-0.7069341 v -1.763718 c 0,-0.09658 -0.0202,-0.1907098 -0.0563,-0.2749185 l 0.24392,-0.2428789 c 0.16508,-0.166397 0.0477,-0.461341 -0.19537,-0.4521692 -0.06873,0.00201 -0.131949,0.02768 -0.1798689,0.077 z m 4.2324389,-2.99e-5 -0.24237,0.2428819 c -0.0845,-0.03621 -0.17794,-0.05529 -0.27492,-0.05529 h -1.76378 c -0.39872,0 -0.70489,0.3190819 -0.70489,0.7053831 v 1.7637167 c 0,0.09723 0.0184,0.1900629 0.0548,0.2749179 l -0.24238,0.24443 c -0.24413,0.2391617 0.10618,0.6259947 0.37312,0.3730996 l 0.24444,-0.2423628 c 0.085,0.03686 0.17728,0.05684 0.27493,0.05684 h 1.76378 c 0.38631,0 0.70489,-0.3164989 0.70489,-0.7069339 V 5.2033048 c 0,-0.09658 -0.0194,-0.1907098 -0.0553,-0.2749185 l 0.24289,-0.242879 c 0.16732,-0.1719022 0.0477,-0.4583065 -0.19432,-0.4511501 -0.06951,0.00151 -0.13245,0.026133 -0.18089,0.075946 z M 3.351322,5.027568 H 4.9156218 L 3.1756119,6.7685467 V 5.203268 c 0,-0.09713 0.0734,-0.1757 0.1757101,-0.1757 z m 5.7982898,0 -1.7415503,1.7420148 V 5.2032995 c 0,-0.09713 0.0734,-0.1757 0.1757,-0.1757158 z m 2.6686692,0 h 1.5643 l -1.74001,1.7414957 V 5.203268 c 0,-0.09403 0.0734,-0.1757 0.17571,-0.1757 z M 5.290802,5.4017055 V 6.966985 c 0,0.1022955 -0.0734,0.1777669 -0.1757101,0.1777669 h -1.56843 z m 4.2345097,0 V 6.966985 c 0,0.1022955 -0.0848,0.1777669 -0.1777701,0.1777669 h -1.56637 z m 4.2324493,0 V 6.966985 c 0,0.1022955 -0.0817,0.1777669 -0.1757,0.1777669 h -1.56792 z M 6.071662,8.4656026 c -0.0595,0.00119 -0.1127503,0.02718 -0.1581401,0.06563 l -0.2434,0.206189 C 5.5405319,8.5716768 5.3393916,8.4666366 5.1150917,8.4666366 H 3.3513218 c -0.39459,0 -0.7054099,0.319083 -0.7054099,0.705384 v 1.7637174 c 0,0.39457 0.31909,0.706934 0.7054099,0.706934 h 1.7637699 c 0.3863202,0 0.7048902,-0.314431 0.7048902,-0.706934 V 9.3068956 L 6.2577016,8.9317247 C 6.4467819,8.7696615 6.3308018,8.4602784 6.071662,8.4656026 Z m 1.5120995,0.00101 C 7.1902116,8.4666033 6.8783517,8.7856855 6.8783517,9.1719867 v 1.7637183 c 0,0.391469 0.3191002,0.706933 0.7054098,0.706933 h 1.7637801 c 0.3863195,0 0.7069594,-0.31443 0.7069594,-0.706933 V 9.1719904 c 0,-0.3863009 -0.3123789,-0.7053839 -0.7069594,-0.7053839 z m 4.2345195,0 c -0.39665,0 -0.70489,0.3190819 -0.70489,0.7053831 v 1.7637193 c 0,0.3863 0.3103,0.706932 0.70489,0.706932 h 1.76378 c 0.38631,0 0.70489,-0.31443 0.70489,-0.706932 V 9.1719904 c 0,-0.3863009 -0.31341,-0.7053839 -0.70489,-0.7053839 z M 5.1150919,8.9962904 c 0.0694,0 0.1240399,0.03417 0.15297,0.08785 L 4.2474218,9.9590223 3.890322,9.6014213 C 3.634372,9.3629367 3.274412,9.7147757 3.517202,9.9765872 l 0.52919,0.5291668 c 0.0978,0.09803 0.2545998,0.104117 0.3596798,0.01395 L 5.290802,9.7610939 V 10.9357 c 0,0.102297 -0.0836,0.177767 -0.1757101,0.177767 H 3.351322 c -0.0971,0 -0.1757101,-0.07547 -0.1757101,-0.177767 V 9.1719803 c 0,-0.09713 0.0734,-0.1757 0.1757101,-0.1756989 z m 2.4686696,0 h 1.7637801 c 0.1023003,0 0.1777701,0.07961 0.1777701,0.1757 v 1.7637166 c 0,0.093 -0.0755,0.177767 -0.1777701,0.177767 H 7.5837615 c -0.1022995,0 -0.1757,-0.08477 -0.1757,-0.177767 V 9.1719904 c 0,-0.09506 0.0734,-0.1757 0.1757,-0.1757 z m 4.2345195,0 h 1.76378 c 0.1023,0 0.1757,0.07857 0.1757,0.1757 v 1.7637166 c 0,0.102298 -0.0827,0.177767 -0.1757,0.177767 h -1.76378 c -0.092,0 -0.17571,-0.07547 -0.17571,-0.177767 V 9.1719904 c 0,-0.0961 0.0734,-0.1757 0.17571,-0.1757 z M 3.351322,12.169741 c -0.38632,0 -0.70541,0.31133 -0.70541,0.706933 v 1.763717 c 0,0.393536 0.31909,0.705383 0.70541,0.705383 h 1.7637699 c 0.38632,0 0.70489,-0.30978 0.70489,-0.705383 v -1.763717 c 0,-0.394569 -0.31857,-0.706933 -0.70489,-0.706933 z m 4.2324395,0 c -0.3863096,0 -0.7054098,0.316247 -0.7054098,0.706933 v 1.763717 c 0,0.386301 0.3128999,0.705383 0.7054098,0.705383 h 1.7637801 c 0.3935495,0 0.7069594,-0.319082 0.7069594,-0.705383 v -1.763717 c 0,-0.386301 -0.3118689,-0.706933 -0.7069594,-0.706933 z M 3.351322,12.698907 h 1.7637699 c 0.0961,0 0.1757101,0.07547 0.1757101,0.177767 v 1.763717 c 0,0.09609 -0.0734,0.1757 -0.1757101,0.1757 H 3.351322 c -0.1023001,0 -0.1757101,-0.07961 -0.1757101,-0.1757 v -1.763717 c 0,-0.09506 0.0734,-0.177767 0.1757101,-0.177767 z m 4.2324395,0 h 1.7637801 c 0.1023003,0 0.1777701,0.08167 0.1777701,0.177767 v 1.763717 c 0,0.102295 -0.0837,0.1757 -0.1777701,0.1757 H 7.5837615 c -0.0971,0 -0.1757,-0.07341 -0.1757,-0.1757 v -1.763717 c 0,-0.09352 0.0734,-0.177767 0.1757,-0.177767 z m 5.9104395,0.529684 h 1.47852 l -2.27385,2.273763 v -1.47898 c 0,-0.444315 0.35927,-0.794783 0.79533,-0.794783 z" color="#000" font-family="sans-serif" font-weight="400" overflow="visible" style="line-height:normal;font-variant-ligatures:normal;font-variant-position:normal;font-variant-caps:normal;font-variant-numeric:normal;font-variant-alternates:normal;font-feature-settings:normal;text-indent:0;text-align:start;text-decoration-line:none;text-decoration-style:solid;text-decoration-color:#000;text-transform:none;text-orientation:mixed;shape-padding:0;isolation:auto;mix-blend-mode:normal"></path>
</svg>
